# xmcd CD database file
#
# Track frame offsets:
#	150
#	17510
#	33487
#	50310
#	68055
#	89720
#	106455
#	127135
#	144835
#	160412
#
# Disc length: 2406 seconds
#
# Revision: 6
# Processed by: cddbd v1.5.2PL0 Copyright (c) Steve Scherf et al.
# Submitted via: CDex 1.70beta2
#
DISCID=8609640a
DTITLE=Etta James - Sticking To My Guns
DYEAR=1990
DGENRE=Blues
TTITLE0=Whatever Gets You Through the Night
TTITLE1=Love to Burn
TTITLE2=The Blues Don't Care
TTITLE3=Your Good Thing (Is About to End)
TTITLE4=Get Funky
TTITLE5=Beware
TTITLE6=Out of the Rain
TTITLE7=Stolen Affection
TTITLE8=A Fool in Love
TTITLE9=I've Got Dreams to Remember
EXTD=LABEL =Island Records, Inc.\nID =842926-2\nUPC =none\nCOPYRIGHT =1990 YEAR: 1990
EXTT0=
EXTT1=
EXTT2=
EXTT3=
EXTT4=
EXTT5=
EXTT6=
EXTT7=
EXTT8=
EXTT9=
PLAYORDER=
